<?xml version="1.0" encoding="UTF-8" standalone="no"?>
<!-- Created with Inkscape (http://www.inkscape.org/) -->

<svg
   width="210mm"
   height="297mm"
   viewBox="0 0 210 297"
   version="1.1"
   id="svg1"
   xml:space="preserve"
   inkscape:version="1.3.2 (091e20ef0f, 2023-11-25, custom)"
   sodipodi:docname="wizard.svg"
   xmlns:inkscape="http://www.inkscape.org/namespaces/inkscape"
   xmlns:sodipodi="http://sodipodi.sourceforge.net/DTD/sodipodi-0.dtd"
   xmlns="http://www.w3.org/2000/svg"
   xmlns:svg="http://www.w3.org/2000/svg"><sodipodi:namedview
     id="namedview1"
     pagecolor="#ffffff"
     bordercolor="#000000"
     borderopacity="0.25"
     inkscape:showpageshadow="2"
     inkscape:pageopacity="0.0"
     inkscape:pagecheckerboard="0"
     inkscape:deskcolor="#d1d1d1"
     inkscape:document-units="mm"
     inkscape:zoom="0.33110949"
     inkscape:cx="241.61192"
     inkscape:cy="607.04996"
     inkscape:window-width="1366"
     inkscape:window-height="740"
     inkscape:window-x="0"
     inkscape:window-y="0"
     inkscape:window-maximized="1"
     inkscape:current-layer="layer1" /><defs
     id="defs1" /><g
     inkscape:label="Layer 1"
     inkscape:groupmode="layer"
     id="layer1"><path
       style="fill:#121212;stroke-width:3.28235"
       d="m 37.147493,289.91973 c -0.307556,-0.80126 -0.421389,-18.357 -0.253069,-39.0127 0.305915,-37.55587 0.305915,-37.55587 7.832515,-38.9809 4.139637,-0.78376 9.736247,-2.22239 12.436901,-3.19695 2.700687,-0.97453 7.242873,-3.13886 10.093761,-4.80957 2.850888,-1.67072 7.975724,-5.82998 11.388551,-9.24282 3.412794,-3.41282 7.80944,-9.23545 9.770284,-12.93923 1.960878,-3.70373 4.396516,-9.56431 5.412568,-13.02344 1.016019,-3.45916 1.847342,-8.27909 1.847342,-10.71096 0,-4.27273 -0.134904,-4.42159 -4.012054,-4.42159 -2.652862,0 -4.364347,0.68647 -5.051968,2.02641 -0.571983,1.11448 -1.389026,4.30935 -1.815666,7.09965 -0.42664,2.7903 -2.084885,7.84063 -3.685,11.223 -1.600114,3.38235 -5.229248,8.73006 -8.064708,11.88382 -2.83546,3.15372 -7.631799,7.31003 -10.658523,9.23628 -3.026723,1.92621 -8.493187,4.36142 -12.147693,5.41151 -3.65454,1.05012 -8.083681,1.74382 -9.842531,1.54159 -2.807723,-0.32298 -3.197898,-0.85856 -3.197898,-4.3909 0,-3.95126 0.126375,-4.05624 7.071732,-5.87222 3.889458,-1.01699 9.404303,-3.21602 12.255256,-4.88678 2.85092,-1.67078 7.152641,-5.21736 9.559394,-7.88136 2.40672,-2.66395 5.393037,-7.14298 6.636196,-9.9534 1.243192,-2.81038 2.356894,-7.3033 2.474926,-9.98423 0.212698,-4.83336 0.178232,-4.87741 -4.088694,-5.23148 -3.906231,-0.32397 -4.362642,-0.0571 -4.9469,2.89488 -0.354036,1.78855 -2.104876,6.1178 -3.890771,9.62057 -1.920899,3.76758 -5.240802,7.89281 -8.128616,10.10045 -2.684833,2.0525 -6.998501,4.30185 -9.585948,4.99857 -2.587446,0.69674 -5.431442,0.98782 -6.320007,0.64686 -0.888532,-0.34098 -1.615542,-2.13574 -1.615542,-3.98833 0,-1.85262 0.651351,-3.88535 1.447453,-4.5172 0.796069,-0.63186 3.315504,-1.74986 5.598709,-2.48444 2.283206,-0.73461 5.476246,-2.75653 7.095627,-4.49319 1.619414,-1.73667 3.52912,-4.29575 4.243787,-5.68681 0.714699,-1.3911 1.299451,-3.60567 1.299451,-4.92126 0,-2.013 -0.723528,-2.39199 -4.566311,-2.39199 -3.785571,0 -4.897533,0.5607 -6.503556,3.2795 -1.065484,1.80375 -2.939906,3.9057 -4.165371,4.67099 -1.225467,0.76531 -2.727965,1.08255 -3.338942,0.70494 -0.610945,-0.37759 -1.110847,-4.19907 -1.110847,-8.4922 0,-4.52715 0.583635,-8.38929 1.389553,-9.19518 1.048974,-1.04897 17.722113,-1.38518 68.029026,-1.37179 36.65174,0.01 67.3166,0.44719 68.14412,0.9721 1.05642,0.67013 1.40134,3.33769 1.15794,8.95633 -0.3069,7.08534 -0.60916,8.00191 -2.63859,8.00191 -1.33277,0 -3.27119,-1.57313 -4.63176,-3.75892 -2.07608,-3.33523 -2.86187,-3.72677 -6.97159,-3.47381 -4.50597,0.27736 -4.62634,0.3946 -4.43169,4.31811 0.1523,3.0725 1.30217,5.06106 4.82755,8.34951 2.5451,2.37406 6.10258,4.66934 7.90552,5.10068 1.80293,0.4313 3.92936,1.29722 4.72546,1.92428 0.79607,0.62703 1.44742,2.65582 1.44742,4.50844 0,1.85259 -0.66378,3.6231 -1.47508,3.9344 -0.81126,0.31148 -3.92303,-0.17069 -6.915,-1.07113 -2.99196,-0.90045 -7.46894,-3.24418 -9.94885,-5.20828 -2.47988,-1.96413 -5.86284,-6.3184 -7.51764,-9.67617 -1.65479,-3.35779 -3.30555,-7.56839 -3.66832,-9.35694 -0.59831,-2.94963 -1.05964,-3.21875 -4.96289,-2.89488 -4.30326,0.35705 -4.30326,0.35705 -4.13163,5.6724 0.0945,2.92343 1.30382,7.53464 2.68763,10.24712 1.38381,2.71247 4.67013,7.2687 7.30297,10.12497 2.63281,2.85626 6.89465,6.28512 9.47074,7.61962 2.57609,1.33454 7.81027,3.25497 11.63148,4.26765 6.53657,1.7323 6.96912,2.06303 7.31107,5.58956 0.25702,2.64905 -0.19694,3.96327 -1.54679,4.48132 -1.05065,0.40317 -4.8617,0.085 -8.46904,-0.70711 -3.60734,-0.7921 -9.62232,-3.05781 -13.36666,-5.03494 -3.74431,-1.97709 -9.16423,-5.9511 -12.04423,-8.83107 -2.87997,-2.88 -6.664,-8.25515 -8.40893,-11.94478 -1.7449,-3.68966 -3.80931,-10.08303 -4.58755,-14.20754 -1.41499,-7.49909 -1.41499,-7.49909 -5.81915,-7.49909 -2.42228,0 -4.61279,0.62589 -4.86776,1.3909 -0.25504,0.76498 -0.0328,4.28222 0.49547,7.8161 0.52754,3.53385 3.03119,10.66023 5.56368,15.83637 2.92304,5.97431 6.86317,11.70618 10.78936,15.69559 3.40163,3.45642 8.62366,7.71366 11.60456,9.4606 2.98087,1.7469 7.6294,3.97352 10.33006,4.94805 2.70068,0.97456 8.2973,2.41331 12.43694,3.1973 7.5266,1.42536 7.5266,1.42536 7.5266,40.14824 0,38.72287 0,38.72287 -4.63176,38.72287 -4.63176,0 -4.63176,0 -4.943,-26.34318 -0.17102,-14.48873 -0.72001,-26.34315 -1.21962,-26.34315 -0.49964,0 -2.57416,4.07402 -4.61004,9.05338 -3.54858,8.67911 -3.70233,9.72033 -3.71933,25.18523 -0.01,8.8725 -0.4552,16.82184 -0.98989,17.66518 -0.58466,0.92213 -2.53917,1.38367 -4.90351,1.1579 -3.93137,-0.37536 -3.93137,-0.37536 -4.26138,-12.24425 -0.18152,-6.52791 -0.73062,-11.86892 -1.22028,-11.86892 -0.48963,0 -2.52987,1.69349 -4.53382,3.76331 -3.27779,3.38552 -3.67837,4.57701 -3.99045,11.86889 -0.34695,8.10561 -0.34695,8.10561 -4.68921,8.465 -4.34229,0.35937 -4.34229,0.35937 -4.34229,-4.37864 0,-2.86443 -0.60648,-4.97072 -1.53374,-5.32656 -0.84359,-0.32364 -4.01602,0.47545 -7.04987,1.77592 -3.03384,1.30047 -7.43308,2.67101 -9.77609,3.04565 -2.88207,0.46088 -6.5008,-0.11877 -11.187705,-1.79223 -3.810254,-1.36039 -7.709329,-2.57998 -8.664657,-2.71023 -1.216146,-0.16577 -1.910494,1.15184 -2.315865,4.39493 -0.545068,4.36051 -0.824428,4.65229 -4.770277,4.98217 -3.543398,0.29606 -4.301688,-0.0617 -4.905444,-2.31591 -0.392766,-1.46646 -0.721264,-5.08739 -0.72993,-8.04652 -0.01318,-4.72462 -0.527015,-5.82909 -4.210766,-9.0635 -2.307231,-2.02577 -4.629923,-3.24821 -5.161566,-2.71657 -0.531643,0.53161 -1.11902,5.65234 -1.305261,11.37936 -0.338673,10.41274 -0.338673,10.41274 -4.39146,10.41274 -4.052819,0 -4.052819,0 -4.652669,-18.52708 -0.519958,-16.05848 -0.952868,-19.29847 -3.24907,-24.31675 -1.457037,-3.18434 -3.246871,-7.09238 -3.977392,-8.68455 -1.22179,-2.66298 -1.392078,-2.33833 -2.125487,4.05279 -0.438491,3.82121 -0.853839,16.1967 -0.922966,27.50109 -0.125708,20.55347 -0.125708,20.55347 -4.214804,20.55347 -2.249002,0 -4.340682,-0.65558 -4.648173,-1.45683 z m 81.486977,-16.54881 c 5.7559,-2.87957 10.84732,-6.75869 17.00317,-12.9546 6.88336,-6.92816 9.90185,-11.11768 13.93274,-19.33798 2.83014,-5.77152 5.42783,-12.57797 5.77264,-15.12547 0.34484,-2.54747 0.10766,-5.41336 -0.52718,-6.36865 -0.8565,-1.28895 -4.28583,-1.89018 -13.29665,-2.33119 -11.46693,-0.56119 -12.33908,-0.78261 -15.67638,-3.97996 -1.94364,-1.86212 -3.53388,-3.84918 -3.53388,-4.41568 0,-0.56654 1.95402,-0.88536 4.34225,-0.70854 3.02765,0.22419 4.24668,-0.12343 4.0265,-1.14812 -0.17364,-0.80829 -1.64485,-2.86707 -3.26926,-4.57506 -1.62443,-1.708 -4.40921,-5.18971 -6.18844,-7.73718 -1.7792,-2.54751 -4.80415,-7.75823 -6.72207,-11.57943 -1.91794,-3.82122 -4.4272,-9.94382 -5.57615,-13.60581 -1.14896,-3.66199 -2.40236,-6.65816 -2.78534,-6.65816 -0.38296,0 -2.17581,4.92462 -3.98406,10.94361 -3.2877,10.94359 -3.2877,10.94359 0.89999,14.89308 2.30323,2.17223 4.97283,5.82857 5.93243,8.12523 1.25221,2.997 1.74473,8.4459 1.74473,19.3025 0,12.38787 -0.3151,15.24765 -1.73951,15.7943 -0.95671,0.36712 -2.97923,0.35636 -4.49447,-0.023 -2.6908,-0.67538 -2.76574,-1.03792 -3.21867,-15.5749 -0.36227,-11.62751 -0.90478,-15.55661 -2.479883,-17.96051 -1.167697,-1.78215 -3.084559,-3.07703 -4.555052,-3.07703 -1.470298,0 -4.870618,2.29666 -8.07889,5.4567 -3.047008,3.00116 -5.539988,5.86708 -5.539988,6.36866 0,0.50161 1.601427,0.91199 3.558728,0.91199 2.681716,0 3.466459,0.46916 3.184342,1.90368 -0.205803,1.04703 -1.821871,2.98336 -3.59096,4.30296 -2.535946,1.89155 -5.546553,2.53008 -14.227918,3.01756 -7.977332,0.44796 -11.329665,1.0969 -12.166566,2.35523 -0.635333,0.9553 -0.873041,3.82119 -0.528229,6.36864 0.344844,2.54751 2.942267,9.35347 5.772116,15.12444 3.696749,7.53886 7.209886,12.6088 12.47967,18.00988 4.033979,4.13447 9.798448,9.21247 12.809941,11.28443 3.01146,2.07195 7.422845,4.48251 9.803077,5.35683 2.380232,0.87429 6.211722,1.62637 8.514392,1.67125 2.612,0.0509 7.27701,-1.46443 12.40283,-4.02877 z M 97.123699,249.70338 c -2.069819,-1.262 -3.763317,-2.73246 -3.763317,-3.26769 0,-0.53517 1.265446,-2.16191 2.812092,-3.61491 2.337887,-2.19632 3.362999,-2.45648 6.079176,-1.54274 2.01458,0.67767 4.75639,0.69156 7.15169,0.0361 3.28721,-0.89943 4.30425,-0.66864 6.61342,1.5007 2.06322,1.9383 2.46324,3.05975 1.64006,4.59788 -0.5988,1.11886 -2.7407,2.61016 -4.75977,3.31403 -2.01908,0.70387 -5.54734,1.27779 -7.84056,1.27543 -2.29322,-0.003 -5.862972,-1.03689 -7.932791,-2.29886 z M 26.928478,139.92846 c -0.316748,-0.51244 -0.219261,-1.46232 0.216306,-2.11081 0.435601,-0.6485 3.13688,-2.77638 6.002768,-4.72863 4.598183,-3.13225 6.357228,-5.77766 14.963394,-22.50342 5.363957,-10.42465 13.083984,-24.946242 17.15558,-32.270223 4.071595,-7.32398 7.796901,-13.71843 8.278455,-14.209897 0.481554,-0.4915 3.142065,-1.280545 5.912273,-1.753434 2.770174,-0.472921 5.235517,-1.456281 5.478509,-2.185291 C 85.178658,59.437777 83.751557,58.484187 81.76419,58.0477 79.776823,57.611213 77.874273,56.533517 77.536356,55.652896 77.198404,54.77224 81.933199,44.373844 88.058069,32.545392 94.182941,20.716907 100.49353,8.9808211 102.08159,6.4651601 c 2.58637,-4.0970659 3.37574,-4.5738935 7.57203,-4.5738935 3.98947,0 5.49079,0.7805764 10.11746,5.2603648 5.43278,5.2603976 5.43278,5.2603976 1.95897,5.0880416 -1.91059,-0.09486 -3.84609,-0.11718 -4.30112,-0.04956 -0.455,0.06762 0.22385,2.574809 1.5085,5.571859 2.33579,5.4492 2.33579,5.4492 -0.28918,7.429246 -2.62503,1.980047 -2.62503,1.980047 1.38637,2.967936 3.85798,0.950143 4.55164,2.049731 18.14068,28.756433 7.77113,15.272691 14.15429,28.682417 14.18478,29.799368 0.0394,1.446796 -1.44748,2.432848 -5.17036,3.428549 -2.87422,0.768728 -5.05085,1.922672 -4.83697,2.564339 0.21401,0.641635 3.73794,1.964685 7.8312,2.940135 7.44234,1.773488 7.44234,1.773488 15.1247,16.826722 6.63816,13.00717 8.52682,15.72214 13.89527,19.97446 3.41714,2.70666 6.21294,5.57255 6.21294,6.36865 0,1.14095 -16.7204,1.51048 -78.95618,1.745 -43.425925,0.16379 -79.215357,-0.12177 -79.532072,-0.63428 z"
       id="path3099" /></g></svg>
